# xmcd CD database file
#
# Track frame offsets:
#	150
#	22228
#	39765
#	59182
#	78707
#	104845
#	128724
#	146339
#	184479
#
# Disc length: 3017 seconds
#
# Revision: 0
# Processed by: cddbd v1.5.2PL0 Copyright (c) Steve Scherf et al.
# Submitted via: CDex 1.70beta2
#
DISCID=880bc709
DTITLE=いえろ～ぜぶら - 東方絢彩歌～Touch of Air～
DYEAR=2008
DGENRE=東方アレンジ
TTITLE0=彩声 ～Bird can sing～
TTITLE1=Melody！
TTITLE2=風の道標 ～shirushi～
TTITLE3=NOTE
TTITLE4=宵月物語
TTITLE5=紅音の瞳 ～Sound of Red Eye～
TTITLE6=雨帰り
TTITLE7=MONOLIFE
TTITLE8=製作者コメント
EXTD=YEAR: 2008
EXTT0=
EXTT1=
EXTT2=
EXTT3=
EXTT4=
EXTT5=
EXTT6=
EXTT7=
EXTT8=
PLAYORDER=
